<svg xmlns="http://www.w3.org/2000/svg" viewBox="0 0 224.85 49.6"><g id="레이어_2" data-name="레이어 2"><g id="레이어_1-2" data-name="레이어 1"><path d="M15.7,37.5a2.15,2.15,0,0,1-2.08-1.12,6.28,6.28,0,0,1-.57-2.83,12.81,12.81,0,0,1,.1-1.62c.07-.55.15-1.11.25-1.68a14,14,0,0,1,.4-1.82c.2-.72.43-1.5.7-2.33A44.41,44.41,0,0,1,12.3,30a28.73,28.73,0,0,1-2.72,3.64,15.16,15.16,0,0,1-3.06,2.71,5.74,5.74,0,0,1-3.17,1,3.14,3.14,0,0,1-2.37-1,5.18,5.18,0,0,1-1-3.58A17.15,17.15,0,0,1,.9,27.4a19.87,19.87,0,0,1,2.53-5.12,13.72,13.72,0,0,1,3.84-3.83A8.75,8.75,0,0,1,12.15,17a7.84,7.84,0,0,1,2.45.45,3.53,3.53,0,0,1,2,1.75,4.27,4.27,0,0,0,.4-.8,7,7,0,0,1,.3-.7c.8-1.77,1.48-3.43,2-5a37.36,37.36,0,0,1,1.5-3.65c.57-1.13,1-2,1.35-2.57a4.22,4.22,0,0,1,.93-1.23,2.56,2.56,0,0,1,1-.5,6.82,6.82,0,0,1,1-.15c.37,0,.75,0,1.15,0h1.38a5.82,5.82,0,0,0,1,0,8.79,8.79,0,0,0-2,2.45,46,46,0,0,0-2.4,4.45c-.83,1.73-1.64,3.58-2.42,5.53s-1.5,3.88-2.15,5.8S18.51,26.38,18.12,28a16.94,16.94,0,0,0-.57,3.8c0,1.07.3,1.6.9,1.6a2.59,2.59,0,0,0,1.43-.6A10.8,10.8,0,0,0,21.4,31.4c.47-.5.8-.87,1-1.1a31.37,31.37,0,0,0,1.9-2.77c.6-1,1.12-1.91,1.55-2.78.17-.27.28-.4.35-.4.23,0,.35.3.35.9a3.54,3.54,0,0,1-.5,1.8c-.47.8-1,1.69-1.67,2.68s-1.31,1.94-2,2.87a25.78,25.78,0,0,1-1.82,2,15.44,15.44,0,0,1-2.4,2A4.46,4.46,0,0,1,15.7,37.5ZM5.6,33.15a1.64,1.64,0,0,0,.45.05c.93,0,2-.62,3.28-1.87A28,28,0,0,0,13.1,26.4a16.88,16.88,0,0,0,1-1.7c.37-.73.76-1.54,1.18-2.42s.8-1.71,1.17-2.48a1.82,1.82,0,0,0-.88-.7,3.14,3.14,0,0,0-1.12-.2,5.55,5.55,0,0,0-2.35.58A7.12,7.12,0,0,0,10,20.9a15.65,15.65,0,0,0-2.47,3.35,25.33,25.33,0,0,0-1.9,4.05,10.06,10.06,0,0,0-.73,3.35Q4.85,32.89,5.6,33.15Z"/><path d="M39.5,37.5a2.15,2.15,0,0,1-2.08-1.12,6.28,6.28,0,0,1-.57-2.83,12.81,12.81,0,0,1,.1-1.62c.07-.55.15-1.11.25-1.68a14,14,0,0,1,.4-1.82c.2-.72.43-1.5.7-2.33A44.41,44.41,0,0,1,36.1,30a28.73,28.73,0,0,1-2.72,3.64,15.16,15.16,0,0,1-3.06,2.71,5.77,5.77,0,0,1-3.17,1,3.18,3.18,0,0,1-2.38-1,5.18,5.18,0,0,1-1-3.58,17.15,17.15,0,0,1,.9-5.35,19.87,19.87,0,0,1,2.53-5.12,13.72,13.72,0,0,1,3.84-3.83A8.75,8.75,0,0,1,36,17a7.84,7.84,0,0,1,2.45.45,3.53,3.53,0,0,1,2.05,1.75,4.27,4.27,0,0,0,.4-.8,7,7,0,0,1,.3-.7c.8-1.77,1.48-3.43,2.05-5a37.36,37.36,0,0,1,1.5-3.65c.57-1.13,1-2,1.35-2.57A4.22,4.22,0,0,1,47,5.25a2.56,2.56,0,0,1,1-.5,6.82,6.82,0,0,1,1-.15c.37,0,.75,0,1.15,0h1.38a5.82,5.82,0,0,0,1,0,8.79,8.79,0,0,0-2,2.45,46,46,0,0,0-2.4,4.45c-.83,1.73-1.64,3.58-2.43,5.53s-1.5,3.88-2.14,5.8S42.31,26.38,41.92,28a16.94,16.94,0,0,0-.57,3.8c0,1.07.3,1.6.9,1.6a2.56,2.56,0,0,0,1.42-.6A10.34,10.34,0,0,0,45.2,31.4c.47-.5.8-.87,1-1.1a31.37,31.37,0,0,0,1.9-2.77c.6-1,1.12-1.91,1.55-2.78.17-.27.28-.4.35-.4.23,0,.35.3.35.9a3.54,3.54,0,0,1-.5,1.8c-.47.8-1,1.69-1.68,2.68s-1.3,1.94-2,2.87c-.47.6-1.08,1.28-1.82,2a15.92,15.92,0,0,1-2.4,2A4.49,4.49,0,0,1,39.5,37.5ZM29.4,33.15a1.64,1.64,0,0,0,.45.05c.93,0,2-.62,3.27-1.87A27.5,27.5,0,0,0,36.9,26.4a16.88,16.88,0,0,0,1-1.7c.37-.73.76-1.54,1.17-2.42L40.2,19.8a1.87,1.87,0,0,0-.88-.7,3.14,3.14,0,0,0-1.12-.2,5.55,5.55,0,0,0-2.35.58,7.12,7.12,0,0,0-2.1,1.42,16,16,0,0,0-2.48,3.35,26.15,26.15,0,0,0-1.89,4.05,10.06,10.06,0,0,0-.73,3.35Q28.65,32.89,29.4,33.15Z"/><path d="M53.6,37.6a5.88,5.88,0,0,1-4-1.45Q48,34.7,48,31.5a15.37,15.37,0,0,1,.85-4.9,17.9,17.9,0,0,1,2.42-4.75,13.26,13.26,0,0,1,3.83-3.6,9.38,9.38,0,0,1,5.05-1.4,6.2,6.2,0,0,1,3.57.88,4.82,4.82,0,0,1,1.83,2.32,8.61,8.61,0,0,1,.55,3.1,11.6,11.6,0,0,1-.28,2.53A15.53,15.53,0,0,1,65,28.2a2.69,2.69,0,0,0,2.15,1,3.88,3.88,0,0,0,2.6-1.05A6.31,6.31,0,0,0,71,26.62c.39-.61.73-1.19,1-1.72.1-.2.22-.3.35-.3s.25.23.25.7a4.83,4.83,0,0,1-.13,1.05,3.3,3.3,0,0,1-.52,1.2,7.45,7.45,0,0,1-1.55,2,6.5,6.5,0,0,1-1.8,1.07,4.26,4.26,0,0,1-1.6.3,4.53,4.53,0,0,1-2.8-.95,13.82,13.82,0,0,1-1,1.75,14.39,14.39,0,0,1-3.75,4.18A9.56,9.56,0,0,1,53.6,37.6Zm1.9-1.9a3.76,3.76,0,0,0,2.22-.77,9.74,9.74,0,0,0,2-1.93,17.34,17.34,0,0,0,1.57-2.4c.45-.83.83-1.57,1.13-2.2a4.61,4.61,0,0,1-1.7-3.65,3,3,0,0,1,.8-2.25,2.68,2.68,0,0,1,2.2-.7,3.33,3.33,0,0,0-.6-1.9,2.09,2.09,0,0,0-1.8-.75,3.79,3.79,0,0,0-2.18.7,9.52,9.52,0,0,0-1.9,1.77,19.66,19.66,0,0,0-1.55,2.21c-.45.75-.82,1.42-1.12,2A20.49,20.49,0,0,0,53.35,29a12,12,0,0,0-.55,3.45,4.4,4.4,0,0,0,.57,2.33A2.33,2.33,0,0,0,55.5,35.7Z"/><path d="M84.5,37.5a2.15,2.15,0,0,1-2.08-1.12,6.28,6.28,0,0,1-.57-2.83,12.81,12.81,0,0,1,.1-1.62c.07-.55.15-1.11.25-1.68a14,14,0,0,1,.4-1.82c.2-.72.43-1.5.7-2.33A44.41,44.41,0,0,1,81.1,30a28.73,28.73,0,0,1-2.72,3.64,15.16,15.16,0,0,1-3.06,2.71,5.77,5.77,0,0,1-3.17,1,3.18,3.18,0,0,1-2.38-1,5.18,5.18,0,0,1-1-3.58,17.15,17.15,0,0,1,.9-5.35,19.87,19.87,0,0,1,2.53-5.12,13.72,13.72,0,0,1,3.84-3.83A8.75,8.75,0,0,1,81,17a7.84,7.84,0,0,1,2.45.45,3.53,3.53,0,0,1,2,1.75,4.27,4.27,0,0,0,.4-.8,7,7,0,0,1,.3-.7c.8-1.77,1.48-3.43,2-5a37.36,37.36,0,0,1,1.5-3.65c.57-1.13,1-2,1.35-2.57A4.22,4.22,0,0,1,92,5.25a2.56,2.56,0,0,1,1-.5,6.82,6.82,0,0,1,1-.15c.37,0,.75,0,1.15,0h1.38a5.82,5.82,0,0,0,1,0,8.79,8.79,0,0,0-2,2.45,46,46,0,0,0-2.4,4.45c-.83,1.73-1.64,3.58-2.43,5.53s-1.5,3.88-2.14,5.8S87.31,26.38,86.92,28a16.94,16.94,0,0,0-.57,3.8c0,1.07.3,1.6.9,1.6a2.56,2.56,0,0,0,1.42-.6A10.34,10.34,0,0,0,90.2,31.4c.47-.5.8-.87,1-1.1a31.37,31.37,0,0,0,1.9-2.77c.6-1,1.12-1.91,1.55-2.78.17-.27.28-.4.35-.4.23,0,.35.3.35.9a3.54,3.54,0,0,1-.5,1.8c-.47.8-1,1.69-1.68,2.68s-1.3,1.94-2,2.87c-.47.6-1.08,1.28-1.82,2a15.92,15.92,0,0,1-2.4,2A4.49,4.49,0,0,1,84.5,37.5ZM74.4,33.15a1.64,1.64,0,0,0,.45.05c.93,0,2-.62,3.27-1.87A27.5,27.5,0,0,0,81.9,26.4a16.88,16.88,0,0,0,.95-1.7c.37-.73.76-1.54,1.17-2.42L85.2,19.8a1.87,1.87,0,0,0-.88-.7,3.14,3.14,0,0,0-1.12-.2,5.55,5.55,0,0,0-2.35.58,7.12,7.12,0,0,0-2.1,1.42,16,16,0,0,0-2.48,3.35,26.15,26.15,0,0,0-1.89,4.05,10.06,10.06,0,0,0-.73,3.35Q73.65,32.89,74.4,33.15Z"/><path d="M108.3,37.5a2.15,2.15,0,0,1-2.08-1.12,6.28,6.28,0,0,1-.57-2.83,12.81,12.81,0,0,1,.1-1.62c.07-.55.15-1.11.25-1.68a14,14,0,0,1,.4-1.82c.2-.72.43-1.5.7-2.33A44.41,44.41,0,0,1,104.9,30a27.87,27.87,0,0,1-2.73,3.64,15.12,15.12,0,0,1-3,2.71,5.77,5.77,0,0,1-3.17,1,3.18,3.18,0,0,1-2.38-1,5.18,5.18,0,0,1-1-3.58,17.15,17.15,0,0,1,.9-5.35A20.16,20.16,0,0,1,96,22.28a13.88,13.88,0,0,1,3.85-3.83A8.75,8.75,0,0,1,104.75,17a7.84,7.84,0,0,1,2.45.45,3.53,3.53,0,0,1,2,1.75,4.27,4.27,0,0,0,.4-.8,7,7,0,0,1,.3-.7c.8-1.77,1.48-3.43,2-5a37.36,37.36,0,0,1,1.5-3.65c.57-1.13,1-2,1.35-2.57a4.41,4.41,0,0,1,.92-1.23,2.68,2.68,0,0,1,1-.5,6.82,6.82,0,0,1,1-.15c.37,0,.75,0,1.15,0h1.37a5.89,5.89,0,0,0,1,0,8.79,8.79,0,0,0-2,2.45,46,46,0,0,0-2.4,4.45c-.83,1.73-1.64,3.58-2.43,5.53s-1.5,3.88-2.15,5.8-1.16,3.65-1.55,5.22a16.94,16.94,0,0,0-.57,3.8c0,1.07.3,1.6.9,1.6a2.56,2.56,0,0,0,1.42-.6A10.87,10.87,0,0,0,114,31.4c.47-.5.8-.87,1-1.1a31.37,31.37,0,0,0,1.9-2.77c.6-1,1.12-1.91,1.55-2.78.17-.27.28-.4.35-.4.23,0,.35.3.35.9a3.54,3.54,0,0,1-.5,1.8c-.47.8-1,1.69-1.68,2.68s-1.3,1.94-2,2.87a26.14,26.14,0,0,1-1.83,2,15,15,0,0,1-2.4,2A4.43,4.43,0,0,1,108.3,37.5ZM98.2,33.15a1.64,1.64,0,0,0,.45.05c.93,0,2-.62,3.27-1.87a28,28,0,0,0,3.78-4.93,16.88,16.88,0,0,0,1-1.7c.37-.73.76-1.54,1.17-2.42L109,19.8a1.87,1.87,0,0,0-.88-.7,3.18,3.18,0,0,0-1.12-.2,5.55,5.55,0,0,0-2.35.58,7.12,7.12,0,0,0-2.1,1.42,16,16,0,0,0-2.48,3.35,27.19,27.19,0,0,0-1.9,4.05,10.27,10.27,0,0,0-.72,3.35Q97.45,32.89,98.2,33.15Z"/><path d="M122.4,37.6a5.88,5.88,0,0,1-4-1.45q-1.67-1.45-1.67-4.65a15.37,15.37,0,0,1,.85-4.9A17.9,17.9,0,0,1,120,21.85a13.26,13.26,0,0,1,3.83-3.6,9.38,9.38,0,0,1,5.05-1.4,6.2,6.2,0,0,1,3.57.88,4.82,4.82,0,0,1,1.83,2.32,8.61,8.61,0,0,1,.55,3.1,11.6,11.6,0,0,1-.28,2.53,15.53,15.53,0,0,1-.77,2.52,2.69,2.69,0,0,0,2.15,1,3.88,3.88,0,0,0,2.6-1.05,6.31,6.31,0,0,0,1.27-1.53c.39-.61.73-1.19,1-1.72.1-.2.22-.3.35-.3s.25.23.25.7a4.83,4.83,0,0,1-.13,1.05,3.3,3.3,0,0,1-.52,1.2,7.45,7.45,0,0,1-1.55,2,6.5,6.5,0,0,1-1.8,1.07,4.26,4.26,0,0,1-1.6.3,4.53,4.53,0,0,1-2.8-.95,13.82,13.82,0,0,1-1,1.75,14.39,14.39,0,0,1-3.75,4.18A9.56,9.56,0,0,1,122.4,37.6Zm1.9-1.9a3.76,3.76,0,0,0,2.22-.77,9.74,9.74,0,0,0,2-1.93,17.34,17.34,0,0,0,1.57-2.4c.45-.83.83-1.57,1.13-2.2a4.61,4.61,0,0,1-1.7-3.65,3,3,0,0,1,.8-2.25,2.68,2.68,0,0,1,2.2-.7,3.33,3.33,0,0,0-.6-1.9,2.09,2.09,0,0,0-1.8-.75,3.79,3.79,0,0,0-2.18.7,9.52,9.52,0,0,0-1.9,1.77,19.66,19.66,0,0,0-1.55,2.21c-.45.75-.82,1.42-1.12,2a20.49,20.49,0,0,0-1.2,3.15,12,12,0,0,0-.55,3.45,4.4,4.4,0,0,0,.57,2.33A2.33,2.33,0,0,0,124.3,35.7Z"/><path d="M145.3,38.2a11.1,11.1,0,0,1-3.2-.45,5.72,5.72,0,0,1-2.45-1.4,3.26,3.26,0,0,1-1-2.4,3.93,3.93,0,0,1,.67-2.15,2.17,2.17,0,0,1,1.93-1.05,2,2,0,0,1,1,.25,1.25,1.25,0,0,1,.6.65,3,3,0,0,0-.25.33,2.94,2.94,0,0,0-.25.37A3.73,3.73,0,0,0,142,34a2.12,2.12,0,0,0,.77,1.7,3.09,3.09,0,0,0,2,.65,4.27,4.27,0,0,0,2.87-1.17,3.52,3.52,0,0,0,1.23-2.68,3.7,3.7,0,0,0-.4-1.7,7.27,7.27,0,0,0-1.73-2.32c-.71-.65-1.4-1.31-2.05-2a6.06,6.06,0,0,1-1.42-2.4,5.62,5.62,0,0,1-.2-1.6,7.09,7.09,0,0,1,.25-1.88,4.58,4.58,0,0,1,.75-1.57,6.74,6.74,0,0,1,2.1-1.75,8.5,8.5,0,0,1,4.1-.95,8.61,8.61,0,0,1,2.75.4,4,4,0,0,1,1.57,1,2.4,2.4,0,0,1,.68,1.77,4.15,4.15,0,0,1-.78,2.38,3.26,3.26,0,0,1-2.22,1.37,2.47,2.47,0,0,1-1.6-.32c-.47-.29-.63-.83-.5-1.63a3.21,3.21,0,0,0,1.95-1.1,1.61,1.61,0,0,0,.3-.9,1.2,1.2,0,0,0-.68-1.18,3,3,0,0,0-1.27-.32A5.55,5.55,0,0,0,149,18a3.41,3.41,0,0,0-1.22.57,2.85,2.85,0,0,0-1.1,2.2,1.6,1.6,0,0,0,.07.45,4.6,4.6,0,0,1,.13.5,4,4,0,0,0,.75,1.2,8.75,8.75,0,0,0,1,1c.83.6,1.69,1.25,2.57,1.95a6.45,6.45,0,0,1,2,2.55,5,5,0,0,1,.5,2.15,5.14,5.14,0,0,1-.75,2.73,6.84,6.84,0,0,1-1.7,1.92,9.31,9.31,0,0,0,3.22-2.47,31.73,31.73,0,0,0,2.73-3.53c.5-.77,1-1.49,1.37-2.17s.85-1.45,1.28-2.28c.13-.23.25-.35.35-.35s.3.28.3.85a3.32,3.32,0,0,1-.13.85,4.5,4.5,0,0,1-.37,1c-.6,1-1.17,1.93-1.7,2.78s-1.18,1.77-2,2.77a14.14,14.14,0,0,1-4.9,4.33A13.81,13.81,0,0,1,145.3,38.2Z"/><path d="M171.45,37.5a2.51,2.51,0,0,1-2.33-1,4.56,4.56,0,0,1-.62-2.38,14.57,14.57,0,0,1,.47-3.37c.32-1.29.72-2.62,1.2-4s1-2.68,1.48-3.88c.16-.4.32-.83.47-1.3a4.16,4.16,0,0,0,.23-1.25c0-.67-.3-1-.9-1a2.77,2.77,0,0,0-.8.13,4.57,4.57,0,0,0-1.05.47,7.8,7.8,0,0,0-2,1.38,11.52,11.52,0,0,0-1.3,1.32,18,18,0,0,0-2.3,3.75,30.3,30.3,0,0,0-1.58,4.08c-.38,1.28-.74,2.37-1.07,3.27-.2.57-.4,1.15-.6,1.75s-.38,1.18-.55,1.75h-4.85q.71-2.51,1.2-3.75,2.3-6,4.35-12.15a86.13,86.13,0,0,1,4.95-11.9,37.46,37.46,0,0,1,2.82-4.7,14.87,14.87,0,0,1,3.25-3.42A6,6,0,0,1,175.55,0a2.61,2.61,0,0,1,2.07.68,2.43,2.43,0,0,1,.58,1.67,6.56,6.56,0,0,1-.45,2.3,18,18,0,0,1-.9,2.05,45.25,45.25,0,0,1-2.35,4.05,45.29,45.29,0,0,1-3.05,4.2c-.24.3-.64.78-1.2,1.43l-1.73,2c-.58.67-1,1.18-1.37,1.55A25.94,25.94,0,0,1,170,18.05a11.37,11.37,0,0,1,2.05-.9,9.22,9.22,0,0,1,2.4-.4c1.9,0,2.85.83,2.85,2.5a6.75,6.75,0,0,1-.6,2.5c-.2.53-.49,1.25-.85,2.15s-.74,1.86-1.13,2.88-.7,2-.95,2.92a9.21,9.21,0,0,0-.37,2.3,2.72,2.72,0,0,0,.17,1,.68.68,0,0,0,.68.42,2.47,2.47,0,0,0,1-.35,9.71,9.71,0,0,0,2.62-2.25,22.56,22.56,0,0,0,2.2-3.1q1-1.65,1.68-3c.1-.23.21-.35.35-.35s.25.28.25.85a5.47,5.47,0,0,1-.1.92,3.11,3.11,0,0,1-.4,1c-.47.8-1.08,1.78-1.83,3a34.6,34.6,0,0,1-2.52,3.43,18.07,18.07,0,0,1-2.95,2.82A5.17,5.17,0,0,1,171.45,37.5ZM165.7,19.55c1.67-2,3.36-4.07,5.07-6.32a40.37,40.37,0,0,0,4.28-6.88c.07-.17.22-.5.45-1a15.77,15.77,0,0,0,.65-1.67,5.33,5.33,0,0,0,.3-1.58c0-.57-.22-.85-.65-.85a2.41,2.41,0,0,0-1.53.9,13.34,13.34,0,0,0-1.77,2.4q-1.16,1.91-2.35,4.38t-2.33,5.22C167.07,16,166.37,17.78,165.7,19.55Z"/><path d="M185.65,37.6a5.87,5.87,0,0,1-4-1.45Q180,34.7,180,31.5a15.37,15.37,0,0,1,.85-4.9,17.61,17.61,0,0,1,2.42-4.75,13.26,13.26,0,0,1,3.83-3.6,9.38,9.38,0,0,1,5.05-1.4,6.2,6.2,0,0,1,3.57.88,4.82,4.82,0,0,1,1.83,2.32,8.83,8.83,0,0,1,.55,3.1,11.6,11.6,0,0,1-.28,2.53,15.53,15.53,0,0,1-.77,2.52,2.68,2.68,0,0,0,2.15,1,3.88,3.88,0,0,0,2.6-1.05,6.55,6.55,0,0,0,1.27-1.53c.39-.61.73-1.19,1-1.72.1-.2.21-.3.35-.3s.25.23.25.7a4.83,4.83,0,0,1-.13,1.05,3.48,3.48,0,0,1-.52,1.2,7.45,7.45,0,0,1-1.55,2,6.81,6.81,0,0,1-1.8,1.07,4.29,4.29,0,0,1-1.6.3,4.51,4.51,0,0,1-2.8-.95,13.82,13.82,0,0,1-1,1.75,14.39,14.39,0,0,1-3.75,4.18A9.58,9.58,0,0,1,185.65,37.6Zm1.9-1.9a3.78,3.78,0,0,0,2.22-.77,9.74,9.74,0,0,0,2-1.93,17.34,17.34,0,0,0,1.57-2.4c.45-.83.83-1.57,1.13-2.2a4.58,4.58,0,0,1-1.7-3.65,3,3,0,0,1,.8-2.25,2.67,2.67,0,0,1,2.2-.7,3.48,3.48,0,0,0-.6-1.9,2.09,2.09,0,0,0-1.8-.75,3.79,3.79,0,0,0-2.18.7,9.52,9.52,0,0,0-1.9,1.77,19.66,19.66,0,0,0-1.55,2.21c-.45.75-.82,1.42-1.12,2A18.62,18.62,0,0,0,185.4,29a12,12,0,0,0-.55,3.45,4.4,4.4,0,0,0,.57,2.33A2.32,2.32,0,0,0,187.55,35.7Z"/><path d="M194.6,49.6a9.09,9.09,0,0,0,.65-1.22c.26-.59.55-1.21.85-1.88s.55-1.23.75-1.7q.84-2.1,2-5.12t2.25-6.33c.76-2.2,1.5-4.3,2.2-6.3s1.31-3.65,1.85-4.95.93-2.16,1.3-2.87A3.24,3.24,0,0,1,208,17.68a7.78,7.78,0,0,1,3.13-.48h1.5a8.55,8.55,0,0,0-1.83,2.28c-.75,1.18-1.46,2.42-2.12,3.72.23-.3.45-.59.65-.87a5,5,0,0,1,.65-.78,18.15,18.15,0,0,1,3.4-3.25,6,6,0,0,1,3.5-1.3,3.11,3.11,0,0,1,2.37,1.05,5.16,5.16,0,0,1,1,3.55,13,13,0,0,1-.88,4.63A19.86,19.86,0,0,1,217,30.62a22.49,22.49,0,0,1-3.2,3.68A8.84,8.84,0,0,1,213,35c-.28.21-.57.42-.87.62a5.3,5.3,0,0,0,3.17-.75,14,14,0,0,0,2.9-2.2,30.51,30.51,0,0,0,2.18-2.35,33.85,33.85,0,0,0,2-3q1-1.69,1.68-3c.13-.23.25-.35.35-.35.26,0,.4.3.4.9a3.3,3.3,0,0,1-.5,1.65c-.27.5-.64,1.13-1.1,1.9s-.89,1.43-1.25,2a21.75,21.75,0,0,1-5.35,5.5,12.48,12.48,0,0,1-7.35,2.15h-.73a6.78,6.78,0,0,1-.77,0,7,7,0,0,1-2.25-.57,2.54,2.54,0,0,1-1.4-1.78l-2.8,8.75c-.37,1.17-.71,2.13-1,2.9a4.1,4.1,0,0,1-1.2,1.73,3.37,3.37,0,0,1-2.12.57Zm12.05-13.7A3.35,3.35,0,0,0,208.6,35a14.62,14.62,0,0,0,2.17-2.2,23,23,0,0,0,1.83-2.58,30.08,30.08,0,0,0,2-4.1,10.27,10.27,0,0,0,.8-3.45q0-1.5-1.2-1.5a3.79,3.79,0,0,0-2.3,1,14,14,0,0,0-2,2.05,30.44,30.44,0,0,0-2.2,3,19.58,19.58,0,0,0-1.75,3.4,8.65,8.65,0,0,0-.67,3.12c0,.17,0,.32,0,.48a4.63,4.63,0,0,0,.08.47A1.27,1.27,0,0,0,206.65,35.9Z"/></g></g></svg>